<svg width="20" height="20" viewBox="0 0 20 20" fill="none" xmlns="http://www.w3.org/2000/svg">
<mask id="path-1-inside-1_2824_5" fill="white">
<path fill-rule="evenodd" clip-rule="evenodd" d="M4.92678 1.02578C3.68139 1.18441 2.63952 1.70367 1.75474 2.60682C0.963151 3.4148 0.486372 4.27158 0.209315 5.38406C-0.271802 7.31586 0.078016 9.21805 1.24286 11.0039C1.98978 12.149 2.953 13.2001 4.72459 14.803C5.85154 15.8227 9.28618 18.7949 9.45292 18.8947C9.61001 18.9887 9.66839 19 10 19C10.3314 19 10.3901 18.9887 10.5471 18.8949C10.7143 18.7949 14.1567 15.8157 15.2754 14.8027C17.0519 13.1943 18.0112 12.1475 18.7571 11.0039C19.922 9.21805 20.2718 7.31586 19.7907 5.38406C19.5136 4.27158 19.0369 3.4148 18.2453 2.60682C17.4565 1.80166 16.612 1.33702 15.5049 1.09907C14.952 0.980197 13.9278 0.969812 13.4409 1.07806C12.0916 1.37812 11.0541 2.06461 10.1075 3.28384L10 3.42226L9.89254 3.28384C8.96235 2.08582 7.94068 1.39941 6.63937 1.09816C6.25094 1.00826 5.36014 0.970605 4.92678 1.02578Z"/>
</mask>
<path d="M4.92678 1.02578L4.74996 -0.363008L4.74988 -0.362998L4.92678 1.02578ZM1.75474 2.60682L2.75478 3.58657L2.7548 3.58655L1.75474 2.60682ZM0.209315 5.38406L1.56782 5.7224L1.56782 5.72239L0.209315 5.38406ZM1.24286 11.0039L0.0702512 11.7688L0.0702631 11.7688L1.24286 11.0039ZM4.72459 14.803L3.78529 15.8412L3.7853 15.8412L4.72459 14.803ZM9.45292 18.8947L8.73388 20.096L8.73393 20.096L9.45292 18.8947ZM10.5471 18.8949L11.2653 20.0966L11.2655 20.0965L10.5471 18.8949ZM15.2754 14.8027L14.3358 13.7649L14.3357 13.7649L15.2754 14.8027ZM18.7571 11.0039L19.9297 11.7688L19.9298 11.7688L18.7571 11.0039ZM19.7907 5.38406L18.4322 5.72239L18.4322 5.7224L19.7907 5.38406ZM18.2453 2.60682L17.2452 3.58656L17.2452 3.58657L18.2453 2.60682ZM15.5049 1.09907L15.2106 2.4678L15.2107 2.46781L15.5049 1.09907ZM13.4409 1.07806L13.137 -0.288568L13.1369 -0.288552L13.4409 1.07806ZM10.1075 3.28384L9.00166 2.42523L9.00162 2.42529L10.1075 3.28384ZM10 3.42226L8.89415 4.2808L10 5.70518L11.1058 4.28081L10 3.42226ZM9.89254 3.28384L10.9984 2.42529L10.9983 2.42525L9.89254 3.28384ZM6.63937 1.09816L6.95512 -0.26577L6.95505 -0.265785L6.63937 1.09816ZM4.74988 -0.362998C3.18954 -0.164249 1.85832 0.50053 0.754668 1.6271L2.7548 3.58655C3.42072 2.90681 4.17325 2.53307 5.10367 2.41456L4.74988 -0.362998ZM0.754691 1.62707C-0.213814 2.61564 -0.812741 3.69477 -1.14919 5.04573L1.56782 5.72239C1.78548 4.84839 2.14012 4.21397 2.75478 3.58657L0.754691 1.62707ZM-1.14919 5.04572C-1.73157 7.38412 -1.29027 9.68289 0.0702512 11.7688L2.41548 10.2391C1.4463 8.75321 1.18796 7.2476 1.56782 5.7224L-1.14919 5.04572ZM0.0702631 11.7688C0.91414 13.0625 1.98028 14.208 3.78529 15.8412L5.6639 13.7649C3.92571 12.1922 3.06543 11.2355 2.41547 10.2391L0.0702631 11.7688ZM3.7853 15.8412C4.3614 16.3624 5.51223 17.3694 6.53272 18.2525C7.04456 18.6954 7.52814 19.1111 7.89552 19.4234C8.07868 19.5791 8.23622 19.7118 8.35514 19.8103C8.41402 19.8591 8.46822 19.9034 8.51347 19.9394C8.52304 19.947 8.62644 20.0316 8.73388 20.096L10.172 17.6935C10.2586 17.7453 10.3156 17.7951 10.256 17.7477C10.232 17.7286 10.1943 17.6979 10.1411 17.6538C10.0358 17.5667 9.88887 17.4429 9.70899 17.29C9.35026 16.985 8.87347 16.5752 8.36494 16.1352C7.3447 15.2523 6.21473 14.2633 5.66389 13.7649L3.7853 15.8412ZM8.73393 20.096C8.86726 20.1758 9.0853 20.2975 9.3964 20.3574C9.62616 20.4016 9.86038 20.4 10 20.4V17.6C9.91986 17.6 9.88148 17.5992 9.86142 17.5983C9.84255 17.5974 9.87249 17.5976 9.92563 17.6079C9.95413 17.6133 9.98695 17.6212 10.0225 17.6322C10.0582 17.6433 10.0902 17.6556 10.1176 17.6675C10.1672 17.6891 10.1944 17.7069 10.1719 17.6934L8.73393 20.096ZM10 20.4C10.1398 20.4 10.3737 20.4016 10.6032 20.3575C10.9138 20.2978 11.1316 20.1765 11.2653 20.0966L9.82882 17.6932C9.8065 17.7065 9.83376 17.6887 9.88338 17.6672C9.91072 17.6553 9.94263 17.6431 9.9782 17.632C10.0137 17.6211 10.0464 17.6132 10.0747 17.6078C10.1276 17.5976 10.1574 17.5974 10.1385 17.5983C10.1184 17.5992 10.08 17.6 10 17.6V20.4ZM11.2655 20.0965C11.3733 20.032 11.477 19.9471 11.4866 19.9395C11.532 19.9035 11.5863 19.859 11.6453 19.8102C11.7645 19.7115 11.9224 19.5784 12.1059 19.4224C12.4739 19.1096 12.9583 18.6932 13.4706 18.2498C14.492 17.3658 15.6429 16.3586 16.2151 15.8405L14.3357 13.7649C13.7892 14.2598 12.6596 15.2487 11.6383 16.1326C11.1293 16.5731 10.6517 16.9836 10.2924 17.2891C10.1121 17.4423 9.96489 17.5663 9.85945 17.6536C9.80614 17.6978 9.76827 17.7286 9.74431 17.7476C9.68453 17.7951 9.74176 17.7452 9.82869 17.6933L11.2655 20.0965ZM16.2151 15.8405C18.0245 14.2023 19.0868 13.0611 19.9297 11.7688L17.5845 10.2391C16.9356 11.2339 16.0793 12.1862 14.3358 13.7649L16.2151 15.8405ZM19.9298 11.7688C21.2903 9.68289 21.7316 7.38411 21.1492 5.04572L18.4322 5.7224C18.812 7.2476 18.5537 8.75321 17.5845 10.2391L19.9298 11.7688ZM21.1492 5.04573C20.8127 3.69477 20.2138 2.61564 19.2453 1.62707L17.2452 3.58657C17.8599 4.21397 18.2145 4.84839 18.4322 5.72239L21.1492 5.04573ZM19.2453 1.62708C18.2635 0.624911 17.1732 0.0256695 15.7991 -0.269671L15.2107 2.46781C16.0508 2.64837 16.6494 2.9784 17.2452 3.58656L19.2453 1.62708ZM15.7992 -0.269655C15.3933 -0.356917 14.8945 -0.392139 14.4623 -0.396532C14.0399 -0.400827 13.5365 -0.377385 13.137 -0.288568L13.7447 2.4447C13.8321 2.42526 14.0843 2.39977 14.4339 2.40332C14.7738 2.40678 15.0636 2.43619 15.2106 2.4678L15.7992 -0.269655ZM13.1369 -0.288552C11.4319 0.0906162 10.1235 0.980457 9.00166 2.42523L11.2133 4.14245C11.9848 3.14877 12.7512 2.66563 13.7448 2.44468L13.1369 -0.288552ZM9.00162 2.42529L8.89416 2.56371L11.1058 4.28081L11.2133 4.14239L9.00162 2.42529ZM11.1058 2.56371L10.9984 2.42529L8.78669 4.14239L8.89415 4.2808L11.1058 2.56371ZM10.9983 2.42525C9.899 1.00936 8.61218 0.117837 6.95512 -0.26577L6.32362 2.46209C7.26917 2.68098 8.0257 3.16228 8.78673 4.14244L10.9983 2.42525ZM6.95505 -0.265785C6.63117 -0.340746 6.20667 -0.376491 5.85905 -0.391184C5.50477 -0.406157 5.08239 -0.405333 4.74996 -0.363008L5.1036 2.41457C5.20453 2.40172 5.44423 2.39378 5.74081 2.40632C6.04403 2.41913 6.25915 2.44717 6.32369 2.46211L6.95505 -0.265785Z" fill="#2C2D2E" mask="url(#path-1-inside-1_2824_5)"/>
</svg>
