<svg width="16" height="16" viewBox="0 0 16 16" xmlns="http://www.w3.org/2000/svg">
<path d="M8.00007 5.91736C6.8532 5.91736 5.91726 6.8533 5.91726 8.00017C5.91726 9.14705 6.8532 10.083 8.00007 10.083C9.14695 10.083 10.0829 9.14705 10.0829 8.00017C10.0829 6.8533 9.14695 5.91736 8.00007 5.91736ZM14.2469 8.00017C14.2469 7.13767 14.2548 6.28298 14.2063 5.42205C14.1579 4.42205 13.9298 3.53455 13.1985 2.8033C12.4657 2.07048 11.5798 1.84392 10.5798 1.79548C9.71726 1.74705 8.86257 1.75486 8.00164 1.75486C7.13914 1.75486 6.28445 1.74705 5.42351 1.79548C4.42351 1.84392 3.53601 2.07205 2.80476 2.8033C2.07195 3.53611 1.84539 4.42205 1.79695 5.42205C1.74851 6.28455 1.75632 7.13923 1.75632 8.00017C1.75632 8.86111 1.74851 9.71736 1.79695 10.5783C1.84539 11.5783 2.07351 12.4658 2.80476 13.197C3.53757 13.9299 4.42351 14.1564 5.42351 14.2049C6.28601 14.2533 7.1407 14.2455 8.00164 14.2455C8.86414 14.2455 9.71882 14.2533 10.5798 14.2049C11.5798 14.1564 12.4673 13.9283 13.1985 13.197C13.9313 12.4642 14.1579 11.5783 14.2063 10.5783C14.2563 9.71736 14.2469 8.86267 14.2469 8.00017V8.00017ZM8.00007 11.2049C6.22664 11.2049 4.79539 9.77361 4.79539 8.00017C4.79539 6.22673 6.22664 4.79548 8.00007 4.79548C9.77351 4.79548 11.2048 6.22673 11.2048 8.00017C11.2048 9.77361 9.77351 11.2049 8.00007 11.2049ZM11.336 5.41267C10.9219 5.41267 10.5876 5.0783 10.5876 4.66423C10.5876 4.25017 10.9219 3.9158 11.336 3.9158C11.7501 3.9158 12.0844 4.25017 12.0844 4.66423C12.0846 4.76256 12.0653 4.85993 12.0277 4.95079C11.9902 5.04166 11.935 5.12421 11.8655 5.19373C11.796 5.26326 11.7134 5.31838 11.6226 5.35595C11.5317 5.39352 11.4343 5.41279 11.336 5.41267V5.41267Z"/>
</svg>
