<svg width="20" height="20" viewBox="0 0 20 20" fill="none" xmlns="http://www.w3.org/2000/svg">
<path d="M9.03726 1.53857C4.90233 1.53857 1.53809 4.90282 1.53809 9.03775C1.53809 13.1729 4.90233 16.5369 9.03726 16.5369C13.1724 16.5369 16.5364 13.1729 16.5364 9.03775C16.5364 4.90282 13.1724 1.53857 9.03726 1.53857ZM9.03726 15.1525C5.66563 15.1525 2.92255 12.4094 2.92255 9.03778C2.92255 5.66616 5.66563 2.92304 9.03726 2.92304C12.4089 2.92304 15.152 5.66612 15.152 9.03775C15.152 12.4094 12.4089 15.1525 9.03726 15.1525Z" fill="#2C2D2E"/>
<path d="M18.3641 17.3857L14.3953 13.4169C14.1249 13.1465 13.6869 13.1465 13.4165 13.4169C13.146 13.6871 13.146 14.1255 13.4165 14.3958L17.3853 18.3646C17.5205 18.4998 17.6975 18.5674 17.8747 18.5674C18.0517 18.5674 18.2289 18.4998 18.3641 18.3646C18.6345 18.0944 18.6345 17.6559 18.3641 17.3857Z" fill="#2C2D2E"/>
</svg>
