<svg style="display: none;" aria-hidden="true" xmlns="http://www.w3.org/2000/svg" xmlns:xlink="http://www.w3.org/1999/xlink"><symbol fill="none" viewBox="0 0 10 22" id="arrow-scroll-down" xmlns="http://www.w3.org/2000/svg"><path d="M4.646 21.354a.5.5 0 00.708 0l3.182-3.182a.5.5 0 10-.708-.707L5 20.293l-2.828-2.828a.5.5 0 10-.708.707l3.182 3.182zM4.5 1v20h1V1h-1z" fill="#2C2D2E"/></symbol><symbol viewBox="0 0 16 16" id="arrow-triangle" xmlns="http://www.w3.org/2000/svg"><path d="M5.273 1L5 1.333 10.455 8 5 14.667l.273.333L11 8 5.273 1z" stroke-width="1.2" stroke-linejoin="round"/></symbol><symbol fill="none" viewBox="0 0 16 16" id="cart" xmlns="http://www.w3.org/2000/svg"><path fill-rule="evenodd" clip-rule="evenodd" d="M.385 1.032c-.158.044-.35.26-.38.426-.031.177.087.419.258.526.114.072.151.075.827.075.623 0 .717.007.783.058.063.05.105.218.282 1.122.366 1.869.456 2.31 1 4.88.512 2.417.54 2.534.676 2.791.077.148.205.339.284.425.196.215.599.463.91.56l.261.08h8.01l.232-.075c.609-.2 1.078-.623 1.292-1.165.04-.103.325-1.376.632-2.829.635-3.001.63-2.962.424-3.36a1.297 1.297 0 00-.632-.588l-.199-.088L9.23 3.86c-3.198-.005-5.815-.017-5.815-.028 0-.01-.087-.455-.194-.988-.212-1.063-.266-1.214-.521-1.463a1.318 1.318 0 00-.7-.35C1.753.99.54.99.384 1.032zm14.46 3.924c.024.022.043.078.043.125 0 .191-1.086 5.231-1.157 5.371a.988.988 0 01-.218.262c-.278.226-.087.217-4.311.207l-3.81-.008-.143-.073a1.008 1.008 0 01-.437-.426c-.05-.106-.63-2.805-1.094-5.09l-.083-.408H9.22c4.297 0 5.595.01 5.627.04zm-8.972 8.003c-.235.086-.48.313-.595.552-.332.69.216 1.484 1.025 1.485.765.002 1.296-.727 1.039-1.426a1.114 1.114 0 00-.657-.623 1.184 1.184 0 00-.812.012zm6.461-.039a1.085 1.085 0 00-.704.567c-.067.124-.081.27-.082.449 0 .183.013.325.084.462a1.13 1.13 0 001.258.571c.444-.108.726-.365.83-.79.13-.527-.053-1.024-.585-1.22a1.331 1.331 0 00-.8-.039z" fill="#fff"/></symbol><symbol viewBox="0 0 16 16" id="facebook" xmlns="http://www.w3.org/2000/svg"><path d="M6 5.333H4V8h2v8h3.333V8h2.428L12 5.333H9.333V4.222c0-.637.128-.889.744-.889H12V0H9.461C7.064 0 6 1.055 6 3.077v2.256z"/></symbol><symbol fill="none" viewBox="0 0 20 20" id="favorite" xmlns="http://www.w3.org/2000/svg"><mask id="ea" fill="#fff"><path fill-rule="evenodd" clip-rule="evenodd" d="M4.927 1.026c-1.246.158-2.287.678-3.172 1.58C.963 3.416.486 4.273.209 5.385c-.48 1.932-.131 3.834 1.034 5.62.747 1.145 1.71 2.196 3.482 3.799 1.127 1.02 4.561 3.992 4.728 4.092.157.094.215.105.547.105.331 0 .39-.011.547-.105.167-.1 3.61-3.08 4.728-4.092 1.777-1.609 2.736-2.655 3.482-3.8 1.165-1.785 1.515-3.687 1.034-5.619-.277-1.112-.754-1.97-1.546-2.777-.789-.805-1.633-1.27-2.74-1.508-.553-.119-1.577-.13-2.064-.02-1.35.3-2.387.986-3.334 2.205L10 3.422l-.107-.138c-.93-1.198-1.952-1.885-3.254-2.186-.388-.09-1.279-.127-1.712-.072z"/></mask><path d="M4.927 1.026L4.75-.363l.177 1.389zm-3.172 1.58l1 .98-1-.98zM.209 5.385l1.359.338-1.359-.338zm1.034 5.62l-1.173.765 1.173-.765zm3.482 3.799l-.94 1.038.94-1.038zm4.728 4.092l-.72 1.201.72-1.201zm1.094 0l.718 1.202-.718-1.202zm4.728-4.092l-.94-1.038.94 1.038zm3.482-3.8l1.173.766-1.173-.765zm1.034-5.619l-1.359.338 1.359-.338zm-1.546-2.777l-1 .98 1-.98zm-2.74-1.508l-.294 1.369.294-1.369zm-2.064-.02L13.137-.29l.304 1.367zm-3.334 2.205l-1.105-.859 1.105.859zM10 3.422l-1.106.859L10 5.705l1.106-1.424L10 3.422zm-.107-.138l1.105-.859-1.105.859zM6.639 1.098l.316-1.364-.316 1.364zM4.75-.363C3.19-.164 1.86.501.756 1.627l2 1.96c.666-.68 1.418-1.054 2.349-1.172L4.75-.363zM.756 1.627c-.969.989-1.568 2.068-1.904 3.419l2.717.676c.217-.874.572-1.508 1.187-2.135l-2-1.96zM-1.15 5.046c-.583 2.338-.141 4.637 1.22 6.723l2.344-1.53c-.969-1.486-1.227-2.991-.847-4.517l-2.717-.676zm1.22 6.723c.843 1.293 1.91 2.439 3.714 4.072l1.879-2.076c-1.738-1.573-2.599-2.53-3.249-3.526L.07 11.77zm3.714 4.072c.576.521 1.727 1.528 2.748 2.412.512.442.995.858 1.363 1.17a49.763 49.763 0 00.617.516c.01.008.113.093.22.157l1.439-2.402c.087.051.144.101.084.054a45.386 45.386 0 01-.547-.458c-.359-.305-.836-.715-1.344-1.155-1.02-.883-2.15-1.872-2.701-2.37L3.785 15.84zm4.949 4.255c.133.08.351.201.662.261.23.045.464.043.604.043v-2.8c-.08 0-.119 0-.139-.002-.018 0 .011 0 .065.01a.892.892 0 01.192.06c.05.021.076.039.054.025l-1.438 2.403zM10 20.4c.14 0 .374.002.603-.042.31-.06.529-.181.662-.261L9.83 17.693c-.023.013.005-.004.054-.026a.941.941 0 01.192-.06c.053-.01.082-.01.064-.009A3.5 3.5 0 0110 17.6v2.8zm1.265-.303c.108-.065.212-.15.222-.158a49.372 49.372 0 00.62-.517c.367-.312.851-.729 1.364-1.172a205.09 205.09 0 002.744-2.41l-1.88-2.075a202.4 202.4 0 01-2.697 2.368c-.509.44-.986.85-1.346 1.156a47.69 47.69 0 01-.548.459c-.06.047-.002-.003.085-.055l1.436 2.403zm4.95-4.257c1.81-1.638 2.872-2.779 3.715-4.071l-2.346-1.53c-.648.995-1.505 1.947-3.248 3.526l1.88 2.075zm3.715-4.071c1.36-2.086 1.802-4.385 1.22-6.723l-2.718.676c.38 1.526.122 3.031-.848 4.517l2.346 1.53zm1.22-6.723c-.337-1.351-.936-2.43-1.905-3.419l-2 1.96c.615.627.97 1.261 1.187 2.135l2.717-.676zm-1.905-3.419C18.263.625 17.173.026 15.8-.27l-.588 2.738c.84.18 1.438.51 2.034 1.119l2-1.96zM15.8-.27a7.089 7.089 0 00-1.337-.127c-.422-.004-.925.02-1.325.108l.608 2.734c.087-.02.34-.045.689-.042.34.004.63.033.777.065l.588-2.738zm-2.662-.019c-1.705.38-3.014 1.27-4.135 2.714l2.211 1.717c.772-.993 1.538-1.476 2.532-1.697L13.137-.29zM9.002 2.425l-.108.139 2.212 1.717.107-.139-2.211-1.717zm2.104.139l-.108-.139-2.211 1.717.107.139 2.212-1.717zm-.108-.139C9.9 1.01 8.612.118 6.955-.265l-.631 2.727c.945.219 1.702.7 2.463 1.68l2.211-1.717zM6.955-.265a6.493 6.493 0 00-1.096-.126 7.104 7.104 0 00-1.109.028l.354 2.778c.1-.013.34-.021.637-.009.303.013.518.041.583.056l.631-2.728z" fill="#2C2D2E" mask="url(#ea)"/></symbol><symbol fill="none" viewBox="0 0 20 20" id="search" xmlns="http://www.w3.org/2000/svg"><path d="M9.037 1.539c-4.135 0-7.499 3.364-7.499 7.499s3.364 7.499 7.5 7.499c4.134 0 7.498-3.364 7.498-7.5 0-4.134-3.364-7.498-7.499-7.498zm0 13.614a6.122 6.122 0 01-6.114-6.115 6.122 6.122 0 016.114-6.115 6.122 6.122 0 016.115 6.115 6.122 6.122 0 01-6.115 6.114z" fill="#2C2D2E"/><path d="M18.364 17.386l-3.969-3.97a.692.692 0 10-.979.98l3.97 3.969a.69.69 0 00.978 0 .692.692 0 000-.98z" fill="#2C2D2E"/></symbol><symbol viewBox="0 0 16 16" id="telegram" xmlns="http://www.w3.org/2000/svg"><path fill-rule="evenodd" clip-rule="evenodd" d="M12.256 15.186c.215.152.492.19.738.097a.774.774 0 00.483-.56c.58-2.723 1.985-9.614 2.512-12.09a.52.52 0 00-.173-.506.534.534 0 00-.532-.094C12.49 3.068 3.88 6.298.362 7.6A.551.551 0 000 8.133c.008.236.167.44.396.51 1.578.471 3.649 1.128 3.649 1.128s.968 2.923 1.473 4.41c.063.186.209.333.402.384a.578.578 0 00.54-.138l2.064-1.949s2.382 1.746 3.732 2.708zm-7.34-5.785l1.12 3.692.248-2.338 6.79-6.124a.185.185 0 00.022-.25.19.19 0 00-.25-.044l-7.93 5.064z"/></symbol><symbol viewBox="0 0 16 16" id="vk" xmlns="http://www.w3.org/2000/svg"><path d="M8.775 12.663c.406 0 .572-.27.567-.61-.02-1.278.476-1.966 1.373-1.07.992.992 1.197 1.68 2.402 1.68h2.133c.539 0 .75-.174.75-.446 0-.575-.947-1.59-1.75-2.335-1.123-1.044-1.176-1.069-.208-2.324C15.242 5.998 16.813 4 15.424 4H12.77c-.515 0-.552.29-.735.722-.664 1.565-1.924 3.591-2.403 3.282-.5-.324-.271-1.604-.233-3.508.01-.503.007-.847-.761-1.026a5.38 5.38 0 00-1.206-.137c-1.515 0-2.56.636-1.967.747 1.048.195.947 2.46.703 3.44-.425 1.704-2.024-1.35-2.69-2.87-.16-.366-.21-.65-.783-.65H.525C.197 4 0 4.107 0 4.344c0 .401 1.973 4.48 3.857 6.513 1.838 1.984 3.654 1.806 4.918 1.806z"/></symbol><symbol fill="none" viewBox="0 0 1920 189" id="wave-main" xmlns="http://www.w3.org/2000/svg"><path d="M1920 7.5C1920 117 1620.5 298 928.5 101S0 57.806 0 57.806V189h1920V7.5z" fill="#FAFAFA"/></symbol><symbol fill="none" viewBox="0 0 1923 1937" id="wave-main-about" xmlns="http://www.w3.org/2000/svg"><path d="M2 594.64h1920v1059c-342.5 201.5-344.5 246.56-1060.5 150s-760.5 18.5-859.5 133v-1342z" fill="#FAFAFA"/><path d="M0 1002.64s100-342 773.5-200.5S1920 586.64 1920 586.64v373.5c-145 136-352.5 505.5-1033 249S0 1374.95 0 1374.95v-372.31z" fill="#F5F5F5"/><path d="M2 325.141c485-212.5 606.5-416.5 1041-282 434.5 134.499 879 44 879 44V600.64s-28 314.657-781 288.5c-753-26.158-1139 204-1139 204V325.141z" fill="#313131"/><path d="M1922 112.287c-80.58 29.965-381.44 120.656-797-8.648-488.5-152-538-21.5-722 88C251.772 281.636 64.066 333.805 2 349.534" stroke="#fff" stroke-opacity=".3"/></symbol><symbol fill="none" viewBox="0 0 1922 1877" id="wave-main-big" xmlns="http://www.w3.org/2000/svg"><path d="M1 0h1920v1430s-325 599-1000 375-920 0-920 0V0z" fill="#FAFAFA"/><path d="M1 1836.29c50.099-45.1 200.858-155.99 471-154.79 339 1.5 401.501 176.5 838 194 362 14.51 555.5-294.58 611-400.51" stroke="#2C2D2E" stroke-opacity=".3"/></symbol><symbol viewBox="0 0 16 16" id="whatsapp" xmlns="http://www.w3.org/2000/svg"><path d="M8.002 0h-.004C3.587 0 0 3.588 0 8a7.94 7.94 0 001.523 4.689l-.997 2.972 3.075-.983A7.93 7.93 0 008.002 16C12.413 16 16 12.411 16 8s-3.587-8-7.998-8zm4.655 11.297c-.193.545-.959.997-1.57 1.129-.418.089-.964.16-2.802-.602-2.351-.974-3.865-3.363-3.983-3.518-.113-.155-.95-1.265-.95-2.413s.583-1.707.818-1.947c.193-.197.512-.287.818-.287.099 0 .188.005.268.009.235.01.353.024.508.395.193.465.663 1.613.719 1.731.057.118.114.278.034.433-.075.16-.141.231-.259.367-.118.136-.23.24-.348.386-.108.127-.23.263-.094.498.136.23.606.997 1.298 1.613.893.795 1.617 1.049 1.876 1.157.193.08.423.061.564-.089.179-.193.4-.513.625-.828.16-.226.362-.254.574-.174.216.075 1.359.64 1.594.757.235.118.39.174.447.273.056.099.056.564-.137 1.11z"/></symbol></svg>