<svg width="1923" height="1937" viewBox="0 0 1923 1937" fill="none" xmlns="http://www.w3.org/2000/svg">
<path d="M2 594.64H1922V1653.64C1579.5 1855.14 1577.5 1900.2 861.5 1803.64C145.5 1707.08 101 1822.14 2 1936.64V594.64Z" fill="#FAFAFA"/>
<path d="M0.000122538 1002.64C0.000122538 1002.64 99.9998 660.64 773.5 802.14C1447 943.64 1920 586.64 1920 586.64V960.14C1775 1096.14 1567.5 1465.64 887 1209.14C206.5 952.64 0 1374.95 0 1374.95L0.000122538 1002.64Z" fill="#F5F5F5"/>
<path d="M2 325.141C487 112.641 608.5 -91.3598 1043 43.1402C1477.5 177.64 1922 87.1405 1922 87.1405V600.64C1922 600.64 1894 915.297 1141 889.14C388 862.982 2 1093.14 2 1093.14V325.141Z" fill="#313131"/>
<path d="M1922 112.287C1841.42 142.252 1540.56 232.943 1125 103.639C636.5 -48.3606 587 82.1393 403 191.639C251.772 281.636 64.0663 333.805 2 349.534" stroke="white" stroke-opacity="0.3"/>
</svg>
