<svg width="40" height="40" viewBox="0 0 40 40" fill="none" xmlns="http://www.w3.org/2000/svg">
<path fill-rule="evenodd" clip-rule="evenodd" d="M8.98553 5.11044C8.61143 5.24228 8.31588 5.51949 8.13592 5.90722L8 6.20019V17.304V28.4078L8.13517 28.704C8.30382 29.0737 8.68073 29.4091 9.05472 29.5224C9.23325 29.5765 9.58421 29.609 9.99035 29.609H10.6403L10.6408 30.3561C10.6413 31.017 10.657 31.1373 10.7766 31.3994C10.9452 31.769 11.3221 32.1044 11.6961 32.2178C11.8746 32.2719 12.2256 32.3044 12.6318 32.3044H13.2817L13.2822 33.0515C13.2827 33.7107 13.2985 33.833 13.4168 34.0915C13.4904 34.2527 13.6566 34.4819 13.786 34.601C14.2457 35.0238 13.7119 34.9997 22.6414 34.9997C31.5709 34.9997 31.0371 35.0238 31.4968 34.601C31.6262 34.4819 31.7924 34.2527 31.866 34.0915L32 33.7985V22.6947V11.591L31.866 11.298C31.7924 11.1368 31.6262 10.9076 31.4968 10.7886C31.1701 10.4881 30.8036 10.3898 30.0096 10.3898H29.3597L29.3592 9.64266C29.3587 8.98347 29.3429 8.86112 29.2246 8.6026C29.151 8.44146 28.9848 8.21224 28.8554 8.09317C28.5287 7.79269 28.1622 7.69437 27.3682 7.69437H26.7183L26.7178 6.94728C26.7173 6.28808 26.7015 6.16574 26.5832 5.90722C26.5096 5.74608 26.3434 5.51685 26.214 5.39779C25.7541 4.97473 26.2916 4.99876 17.3338 5.00092C9.68142 5.00274 9.27603 5.00801 8.98553 5.11044ZM25.7179 6.06747L25.9144 6.28639V6.99035V7.69437H18.9481C11.1867 7.69437 11.6012 7.67316 11.1446 8.09317C11.0152 8.21224 10.849 8.44146 10.7754 8.6026L10.6414 8.89557L10.6408 18.8469L10.6403 28.7982L9.91794 28.7788L9.19558 28.7594L8.9992 28.5405L8.80276 28.3216V17.3285C8.80276 7.09072 8.80947 6.32389 8.90032 6.16697C9.11364 5.7984 8.55808 5.82003 17.4348 5.83497L25.5213 5.84862L25.7179 6.06747ZM28.3593 8.76285L28.5558 8.98177V9.68573V10.3898H21.5895C13.8579 10.3898 14.274 10.3689 13.8025 10.7807C13.6648 10.901 13.4926 11.1311 13.418 11.2947L13.2828 11.591L13.2822 21.5423L13.2817 31.4936L12.5593 31.4742L11.837 31.4547L11.6406 31.2359L11.4442 31.017V20.0239C11.4442 9.7861 11.4509 9.01927 11.5417 8.86235C11.755 8.49379 11.1995 8.51541 20.0762 8.53035L28.1627 8.544L28.3593 8.76285ZM31.0007 11.4582L31.1972 11.6771V22.686V33.6948L31.0773 33.8504C30.8073 34.2007 31.3523 34.1794 22.6711 34.1794C14.0274 34.1794 14.4722 34.1964 14.21 33.8563L14.0856 33.6948V22.6914V11.6878L14.2388 11.502C14.3231 11.3998 14.4458 11.2939 14.5115 11.2665C14.5773 11.2392 18.27 11.2219 22.7176 11.2281L30.8041 11.2394L31.0007 11.4582ZM16.706 13.9097C16.4377 14.1251 16.4943 14.3232 16.9664 14.82L17.378 15.2532L16.9664 15.6863C16.6395 16.0304 16.5547 16.1562 16.5547 16.2974C16.5547 16.4951 16.7753 16.718 16.971 16.718C17.0348 16.718 17.2774 16.5267 17.5238 16.282L17.9628 15.846L18.4 16.282C18.8735 16.7544 19.0416 16.8171 19.2535 16.6008C19.4821 16.3676 19.411 16.1494 18.9535 15.6794L18.5386 15.2532L18.9535 14.8269C19.411 14.3569 19.4821 14.1387 19.2535 13.9055C19.0421 13.6897 18.8747 13.7522 18.3993 14.2243L17.9602 14.6603L17.5231 14.2243C17.2755 13.9773 17.0364 13.7883 16.9716 13.7883C16.9088 13.7883 16.7892 13.8429 16.706 13.9097ZM21.3468 13.9321C21.1231 14.1604 21.1658 14.287 21.632 14.7765L22.0581 15.2239L21.632 15.6768C21.1588 16.1798 21.1102 16.3328 21.3468 16.5742C21.5719 16.8039 21.6941 16.7595 22.1886 16.2684L22.6414 15.8188L23.0942 16.2684C23.5887 16.7595 23.7109 16.8039 23.936 16.5742C24.1611 16.3446 24.1175 16.2198 23.6363 15.7152L23.1957 15.2532L23.6363 14.7911C24.1175 14.2865 24.1611 14.1618 23.936 13.9321C23.6994 13.6907 23.5495 13.7403 23.0566 14.2231L22.6127 14.6579L22.1743 14.2231C21.6946 13.7474 21.5705 13.7038 21.3468 13.9321ZM26.0293 13.9055C25.8007 14.1387 25.8718 14.3569 26.3293 14.8269L26.7442 15.2532L26.3293 15.6794C25.8718 16.1494 25.8007 16.3676 26.0293 16.6008C26.2409 16.8168 26.408 16.7542 26.8857 16.2799L27.3269 15.8417L27.726 16.2528C28.1557 16.6954 28.2976 16.7685 28.5074 16.6556C28.6835 16.5609 28.7262 16.4895 28.7272 16.287C28.7279 16.1581 28.6334 16.0199 28.3165 15.6863L27.9048 15.2532L28.3165 14.82C28.7688 14.3439 28.837 14.1338 28.6133 13.9055C28.4018 13.6897 28.2345 13.7522 27.759 14.2243L27.32 14.6603L26.8828 14.2243C26.4093 13.7519 26.2412 13.6892 26.0293 13.9055ZM19.0206 21.3379C18.9336 21.4098 18.8899 21.509 18.8899 21.6344C18.8899 21.7901 18.9633 21.8981 19.3143 22.2587L19.7387 22.6947L19.3239 23.121C18.9602 23.4945 18.909 23.5737 18.909 23.7622C18.909 23.9179 18.9441 24.0024 19.0366 24.0684C19.2768 24.2401 19.4149 24.1835 19.8781 23.7236L20.3171 23.2876L20.7543 23.7236C21.2335 24.2017 21.3847 24.2555 21.5978 24.024C21.8214 23.7811 21.7654 23.6062 21.311 23.1279L20.8993 22.6947L21.311 22.2616C21.6378 21.9175 21.7227 21.7917 21.7227 21.6505C21.7227 21.4528 21.502 21.2299 21.3063 21.2299C21.2425 21.2299 20.9999 21.4212 20.7535 21.6659L20.3145 22.1019L19.8773 21.6659C19.4069 21.1966 19.2598 21.1403 19.0206 21.3379ZM23.7115 21.3513C23.4431 21.5667 23.4998 21.7648 23.9718 22.2616L24.3835 22.6947L23.9718 23.1279C23.5113 23.6126 23.4529 23.802 23.693 24.0322C23.9169 24.2468 24.0528 24.1967 24.5293 23.7236L24.9683 23.2876L25.4055 23.7236C25.8759 24.1929 26.023 24.2492 26.2622 24.0516C26.3492 23.9797 26.3929 23.8805 26.3929 23.7551C26.3929 23.5994 26.3195 23.4914 25.9685 23.1308L25.5441 22.6947L25.9589 22.2685C26.4165 21.7985 26.4875 21.5803 26.259 21.3471C26.0475 21.1313 25.8802 21.1938 25.4047 21.6659L24.9657 22.1019L24.5285 21.6659C24.2809 21.4189 24.0419 21.2299 23.9771 21.2299C23.9142 21.2299 23.7947 21.2845 23.7115 21.3513ZM16.6795 28.8071C16.4561 29.0498 16.512 29.225 16.9651 29.7019L17.3756 30.1338L16.9651 30.5747C16.5101 31.0636 16.4481 31.261 16.6804 31.4818C16.9015 31.692 17.049 31.6367 17.5238 31.1652L17.9628 30.7292L18.4 31.1652C18.8704 31.6344 19.0176 31.6908 19.2567 31.4932C19.3437 31.4213 19.3875 31.3221 19.3875 31.1967C19.3875 31.041 19.314 30.9329 18.9631 30.5724L18.5386 30.1363L18.9535 29.7101C19.411 29.2401 19.4821 29.0219 19.2535 28.7887C19.0421 28.5729 18.8747 28.6354 18.3993 29.1075L17.9602 29.5435L17.5231 29.1075C17.0438 28.6294 16.8927 28.5756 16.6795 28.8071ZM21.3468 28.8153C21.1216 29.0451 21.1652 29.1696 21.648 29.6759L22.0901 30.1395L21.648 30.5933C21.1623 31.0919 21.1167 31.2226 21.3468 31.4574C21.572 31.6872 21.6941 31.6427 22.1902 31.15L22.6445 30.6989L23.0892 31.15C23.5778 31.6456 23.7059 31.6922 23.936 31.4574C24.1611 31.2277 24.1175 31.103 23.6363 30.5984L23.1957 30.1363L23.6363 29.6743C24.1175 29.1697 24.1611 29.0449 23.936 28.8153C23.7109 28.5856 23.5887 28.63 23.0942 29.1211L22.6414 29.5707L22.1886 29.1211C21.6941 28.63 21.5719 28.5856 21.3468 28.8153ZM26.0421 28.7627C25.9496 28.8287 25.9144 28.9132 25.9144 29.0689C25.9144 29.2573 25.9656 29.3365 26.3277 29.7085L26.7409 30.133L26.3277 30.5679C25.8737 31.0457 25.8053 31.2555 26.0293 31.484C26.2407 31.6998 26.4081 31.6373 26.8835 31.1652L27.3226 30.7292L27.7597 31.1652C28.239 31.6433 28.3901 31.6971 28.6033 31.4656C28.8269 31.2227 28.7709 31.0478 28.3165 30.5695L27.9048 30.1363L28.3165 29.7031C28.7907 29.204 28.8455 29.0086 28.5727 28.7896C28.3465 28.6081 28.1864 28.6746 27.7255 29.1417L27.3259 29.5468L26.8852 29.1091C26.4203 28.6475 26.2825 28.5908 26.0421 28.7627Z" fill="white"/>
</svg>
