<svg width="40" height="40" viewBox="0 0 40 40" fill="none" xmlns="http://www.w3.org/2000/svg">
<path fill-rule="evenodd" clip-rule="evenodd" d="M20.0236 7.07144C19.9398 7.10943 17.0919 9.92555 13.6948 13.3295C8.8906 18.1434 7.48275 19.5821 7.35827 19.8052C7.27021 19.963 7.15278 20.2695 7.09732 20.4863C6.91997 21.1799 6.98168 21.7471 7.30987 22.4389L7.51465 22.8706L12.3217 27.6776L17.1287 32.4847L17.5604 32.6898C18.2513 33.018 18.8191 33.08 19.5114 32.903C19.7275 32.8477 20.0225 32.7406 20.1671 32.6648C20.3702 32.5584 21.8422 31.1181 26.644 26.3275C30.3072 22.6728 32.8872 20.0608 32.929 19.9644C32.9883 19.8281 33 18.9484 33 14.6522C33 9.68861 32.9964 9.48925 32.8995 9.1105C32.7613 8.57023 32.5787 8.25441 32.162 7.83554C31.749 7.42047 31.4347 7.23864 30.888 7.09881C30.5089 7.0019 30.3134 6.9984 25.3356 7.00033C21.0957 7.00195 20.1488 7.01465 20.0236 7.07144ZM30.6386 8.60619C30.7846 8.65597 30.9718 8.7767 31.0968 8.9017C31.4972 9.30214 31.4764 8.99561 31.4764 14.4871V19.3674L25.4961 25.3415C19.7777 31.054 19.5038 31.3196 19.2422 31.4041C18.9256 31.5064 18.5313 31.4854 18.2645 31.3521C18.0264 31.2332 8.7939 22.0074 8.66479 21.7594C8.51563 21.4729 8.48907 21.0872 8.59577 20.757C8.68029 20.4954 8.9458 20.2215 14.6579 14.5027L20.6317 8.52208H25.5117C29.9208 8.52208 30.4155 8.53021 30.6386 8.60619ZM25.7258 11.3946C24.6505 11.6552 23.9089 12.5945 23.9089 13.6958C23.9089 15.0561 24.9428 16.09 26.3029 16.09C27.2179 16.09 28.0468 15.5666 28.4346 14.744C29.2916 12.9259 27.6717 10.9228 25.7258 11.3946ZM26.6158 12.908C27.2746 13.1832 27.3261 14.1464 26.6992 14.4662C26.278 14.6811 25.8147 14.5578 25.5436 14.1587C25.4428 14.0103 25.4267 13.9331 25.4426 13.6752C25.4655 13.3026 25.5938 13.099 25.9019 12.9465C26.1516 12.8229 26.3824 12.8104 26.6158 12.908Z" fill="white"/>
</svg>
