<svg width="40" height="40" viewBox="0 0 40 40" fill="none" xmlns="http://www.w3.org/2000/svg">
<path fill-rule="evenodd" clip-rule="evenodd" d="M30.2105 7.10161C29.1256 7.15173 28.114 7.22415 27.9623 7.26248C27.8106 7.30088 27.58 7.41338 27.4497 7.51254C27.0322 7.83057 26.9958 8.00181 27.054 9.38145L27.1059 10.6134L25.9601 10.6617C25.0745 10.699 24.7383 10.7399 24.4801 10.8415C23.7443 11.1311 23.5015 11.5218 23.4422 12.512L23.4 13.2156L21.8912 11.973C21.0614 11.2897 20.2748 10.6775 20.1432 10.6127C19.8292 10.4579 19.3311 10.4629 18.9869 10.6243C18.8351 10.6955 18.4204 11.0517 18.0655 11.4158C17.7106 11.7799 17.3187 12.1655 17.1945 12.2726L16.9689 12.4673L16.1359 11.7809C15.6778 11.4035 15.1988 11.0443 15.0716 10.9828C14.7466 10.8258 13.9533 10.8291 13.5982 10.9889C13.2748 11.1345 1.32953 22.1665 1.13146 22.5024C0.950074 22.8102 0.957592 23.4537 1.14657 23.7988C1.23887 23.9675 1.71523 24.4171 2.42397 25.0047L3.55406 25.9416L2.73018 26.7567C2.27697 27.205 1.84392 27.6628 1.76778 27.7739C1.60656 28.0092 1.58088 28.5819 1.71925 28.8568C1.84437 29.1053 5.02103 31.7031 5.38754 31.8566C6.09999 32.1549 6.45392 31.9983 7.54583 30.9009C8.02212 30.4223 8.44466 30.0307 8.48471 30.0307C8.52483 30.0307 9.02531 30.4165 9.59701 30.8881C10.1687 31.3596 10.7197 31.7849 10.8214 31.8331C11.1258 31.9774 11.6598 32.0408 11.9959 31.9725C12.5776 31.8542 11.903 32.5426 19.8392 23.9678L23.5488 19.9596L23.6018 23.7657C23.6355 26.1802 23.6847 27.6657 23.7365 27.8286C23.8481 28.1799 24.2716 28.5845 24.6727 28.7232C24.9659 28.8245 25.1913 28.8326 26.5659 28.7907L28.1264 28.7431L28.1308 28.9658C28.1521 30.0288 28.268 31.1698 28.3735 31.3545C28.5282 31.6254 28.8862 31.8959 29.1893 31.9712C29.3354 32.0076 30.2857 31.9934 31.6247 31.9351C34.1145 31.8265 34.2991 31.7877 34.6579 31.2971C34.8356 31.0541 34.8519 30.9754 34.8417 30.4126C34.8354 30.0728 34.8085 29.4841 34.7817 29.1044L34.733 28.4139L35.0211 28.4136C35.1794 28.4134 35.8617 28.3822 36.5372 28.3442C37.9554 28.2643 38.3991 28.1312 38.7361 27.6841C39.1041 27.1958 39.1058 27.2789 38.6235 22.3023C38.3765 19.754 38.1077 16.9719 38.0262 16.1198C37.9447 15.2676 37.8448 14.2521 37.8043 13.863C37.7637 13.474 37.6945 12.7919 37.6503 12.3473C37.5461 11.2969 37.4786 11.0827 37.1472 10.7496C36.6597 10.2597 36.4091 10.2022 35.0066 10.2582L33.7967 10.3065L33.7556 9.87853C33.7329 9.64323 33.6957 9.10693 33.6727 8.68691C33.6257 7.82855 33.5363 7.57074 33.1955 7.31125C32.9664 7.13671 32.5206 6.98345 32.2946 7.00144C32.2331 7.00636 31.2953 7.05142 30.2105 7.10161ZM32.5633 8.08177C32.6165 8.15965 32.763 10.2954 32.718 10.3361C32.6716 10.378 28.2557 10.5669 28.2135 10.5288C28.1896 10.507 28.1429 9.99945 28.1099 9.40071C28.0631 8.55387 28.0707 8.2937 28.1439 8.2289C28.2057 8.17427 28.6981 8.12462 29.5778 8.08427C31.6274 7.99029 32.5004 7.98962 32.5633 8.08177ZM36.3546 11.3467C36.455 11.4447 36.5376 11.5584 36.5381 11.5993C36.5386 11.6402 36.587 12.1435 36.6457 12.7178C36.7042 13.2921 36.729 13.7828 36.7005 13.8083C36.6291 13.8721 35.2939 14.1111 34.5335 14.1962C32.2197 14.455 29.7984 14.2816 27.8287 13.7161C26.5386 13.3456 25.2419 12.6352 24.7769 12.0441L24.6229 11.8483L24.793 11.7489C24.9202 11.6745 25.4218 11.63 26.7866 11.572C27.7896 11.5292 30.0504 11.425 31.8107 11.3403C36.2315 11.1274 36.1299 11.1273 36.3546 11.3467ZM21.2424 12.7149C22.1016 13.4172 22.8149 14.0363 22.8275 14.0907C22.8456 14.1688 22.1592 14.9111 21.2427 15.8044C21.1562 15.8886 20.3437 15.2635 18.1325 13.4115L17.7774 13.1141L18.6149 12.276C19.0755 11.8151 19.5036 11.4379 19.5664 11.4379C19.629 11.4379 20.3833 12.0125 21.2424 12.7149ZM14.6268 11.8613C14.714 11.9063 16.5024 13.3518 18.601 15.0735C20.6995 16.7952 22.4962 18.2606 22.5934 18.3298C22.8817 18.5351 23.0139 18.8255 22.9246 19.0574C22.8406 19.2753 21.381 20.869 21.2653 20.869C21.1595 20.869 20.2203 20.3087 19.532 19.835C18.7335 19.2855 17.2142 17.9406 16.5909 17.2316C15.0207 15.4453 14.2077 13.7814 14.2077 12.3541C14.2077 11.7462 14.2674 11.676 14.6268 11.8613ZM13.5089 14.1983C14.2448 16.1954 16.0686 18.4546 18.3386 20.1809C18.5433 20.3366 18.6716 20.4641 18.6237 20.4644C18.4288 20.4654 17.1751 20.0247 16.4778 19.7101C15.6367 19.3305 14.5166 18.6839 13.7321 18.1248C13.0521 17.6403 11.2843 16.0404 10.8342 15.5022L10.4868 15.0867L11.8069 13.8594L13.1269 12.6321L13.2246 13.1618C13.2783 13.4532 13.4062 13.9196 13.5089 14.1983ZM24.9429 13.4596C25.7499 14.0154 27.2089 14.5902 28.5444 14.8786C30.0201 15.1972 32.1775 15.3406 33.6672 15.219C34.1562 15.1791 34.5684 15.1576 34.5835 15.1712C34.649 15.2305 33.0039 15.8925 32.2573 16.1072C30.6283 16.5759 29.1246 16.7737 27.196 16.7729C26.1337 16.7725 24.6597 16.676 24.5773 16.6014C24.5569 16.583 24.5134 13.1893 24.5336 13.1893C24.5429 13.1894 24.7272 13.311 24.9429 13.4596ZM36.8669 15.0251C36.924 15.3477 37.0582 16.8412 37.0582 17.1548C37.0582 17.3905 37.0037 17.4789 36.6393 17.8352C35.3949 19.0516 32.8944 19.9741 29.6894 20.399C28.477 20.5597 24.8387 20.5498 24.6653 20.3852C24.6528 20.3734 24.618 19.7304 24.5879 18.9563L24.5332 17.5489L24.7482 17.5961C25.1746 17.6896 28.3815 17.7215 29.1758 17.64C32.2084 17.3288 34.8451 16.414 36.3081 15.1653C36.5364 14.9705 36.7468 14.81 36.7757 14.8086C36.8045 14.8072 36.8456 14.9047 36.8669 15.0251ZM23.5116 16.3916C23.5116 18.0048 23.6036 17.9367 22.5867 17.0767L21.9224 16.5149L22.6871 15.7615C23.1076 15.3472 23.4652 15.0082 23.4816 15.0082C23.4982 15.0082 23.5116 15.6308 23.5116 16.3916ZM10.3337 16.4236C11.8748 18.1236 14.0351 19.6886 16.1057 20.6051C17.5078 21.2257 18.5784 21.5008 19.9684 21.5976L20.6306 21.6437L19.7537 22.5868C19.2715 23.1055 18.8281 23.5557 18.7684 23.5873C18.7088 23.6188 18.4035 23.6597 18.09 23.6781C16.262 23.7855 13.4076 22.654 10.8583 20.8113C9.72667 19.9935 7.92141 18.351 7.65048 17.8928C7.59235 17.7944 7.76362 17.6032 8.63357 16.7952C9.21302 16.257 9.70881 15.8166 9.73531 15.8166C9.76181 15.8166 10.0311 16.0898 10.3337 16.4236ZM7.27527 20.3794C7.51278 20.9163 7.9264 21.6364 8.37194 22.2882C9.59642 24.0798 11.9636 26.2631 14.0747 27.5478C14.5342 27.8275 14.7151 27.9745 14.6748 28.0355C14.5641 28.203 12.9201 29.9633 12.8756 29.9619C12.8509 29.9612 12.54 29.7717 12.1847 29.5409C10.6378 28.536 8.6923 26.8642 7.54114 25.5507C6.03159 23.8282 4.99737 21.9691 4.85297 20.7185L4.80675 20.3187L5.76453 19.4499L6.72239 18.5812L6.9209 19.3041C7.03009 19.7016 7.1896 20.1855 7.27527 20.3794ZM37.3906 20.3301C37.4619 21.1267 37.5251 21.837 37.531 21.9085C37.5403 22.0193 37.448 22.0563 36.9093 22.1578C35.5489 22.414 34.286 22.5017 32.4434 22.4679C30.1812 22.4264 28.7382 22.206 27.1936 21.6659L26.7494 21.5106L27.9128 21.4641C31.6442 21.3151 35.0975 20.3422 36.9093 18.9297C37.0801 18.7966 37.1855 18.7533 37.2154 18.8041C37.2405 18.8468 37.3194 19.5335 37.3906 20.3301ZM10.3745 21.6749C12.5642 23.2523 15.0787 24.3397 17.0896 24.5789C17.4491 24.6216 17.7552 24.6666 17.7699 24.6788C17.8011 24.7048 15.4841 27.2013 15.4287 27.2013C15.4083 27.2013 15.2004 27.091 14.967 26.956C13.0432 25.8443 10.7169 23.7658 9.41689 21.9972C9.02047 21.4579 8.25509 20.1699 8.25375 20.0398C8.25338 20.0098 8.59643 20.269 9.01608 20.6156C9.43572 20.9623 10.047 21.439 10.3745 21.6749ZM3.93612 21.4002C3.93612 21.6397 4.32182 22.5868 4.721 23.3278C5.20853 24.2327 5.9352 25.2504 6.76564 26.1908C7.94649 27.5282 10.3145 29.5372 11.704 30.3805C11.9552 30.5331 12.1746 30.6681 12.1914 30.6807C12.2471 30.7223 11.9403 30.9882 11.7674 31.0481C11.6579 31.086 11.5212 31.0772 11.3835 31.0235C11.2659 30.9776 10.4883 30.3764 9.65559 29.6874C8.82285 28.9984 6.85198 27.3815 5.27589 26.0942C3.6998 24.807 2.3182 23.665 2.20559 23.5565C1.81743 23.1827 1.88627 23.0406 2.90889 22.1044C3.40825 21.6473 3.84368 21.2732 3.8765 21.2732C3.90925 21.2732 3.93612 21.3304 3.93612 21.4002ZM25.8884 22.1807C27.9498 23.1243 30.919 23.5768 34.0214 23.42C35.1553 23.3627 36.9035 23.1614 37.4105 23.0299L37.6383 22.9707L37.6807 23.3177C37.7968 24.2671 37.8901 25.4564 37.855 25.5392C37.8332 25.5905 37.6869 25.6526 37.5298 25.6773C34.3466 26.1771 30.9952 26.1293 28.4051 25.5469C26.9719 25.2246 25.8707 24.8037 25.0933 24.2809L24.6281 23.9681V22.7192V21.4702L25.0561 21.7329C25.2915 21.8774 25.666 22.0788 25.8884 22.1807ZM25.3826 25.5468C27.57 26.598 30.932 27.1089 34.4903 26.9308C35.2681 26.8918 36.2394 26.8146 36.6488 26.759C38.1846 26.5507 38.0258 26.547 38.0258 26.7911C38.0258 26.9266 37.961 27.0639 37.8497 27.1647C37.6364 27.3577 37.4726 27.3764 35.1602 27.4703C34.2186 27.5086 31.8238 27.6147 29.8383 27.7061C24.8891 27.9339 25.0856 27.9337 24.8743 27.7114C24.7095 27.5379 24.7025 27.4843 24.7025 26.3892C24.7025 25.7614 24.7155 25.2477 24.7313 25.2477C24.7472 25.2477 25.0403 25.3823 25.3826 25.5468ZM6.0112 27.9501C6.92045 28.6953 7.6545 29.3297 7.64244 29.3596C7.59012 29.4894 5.99304 31.0411 5.91176 31.0411C5.75352 31.0411 2.67078 28.4819 2.67078 28.3504C2.67078 28.2417 4.20497 26.6064 4.31453 26.5983C4.3385 26.5965 5.10202 27.2048 6.0112 27.9501ZM33.737 29.037C33.8377 30.3853 33.8414 30.6985 33.7573 30.7965C33.6892 30.8757 33.3038 30.9113 31.8852 30.9697C30.9027 31.0101 29.958 31.0571 29.7859 31.0741C29.2956 31.1226 29.2717 31.0708 29.2102 29.8276C29.1806 29.229 29.1701 28.7267 29.187 28.7114C29.2192 28.6823 32.4464 28.5062 33.2369 28.4904L33.6954 28.4813L33.737 29.037Z" fill="white"/>
</svg>
